<svg width="150" height="44" viewBox="0 0 150 44" fill="none" xmlns="http://www.w3.org/2000/svg">
<g clip-path="url(#clip0_0_761)">
<path d="M56.2109 17H58.3203L59.2656 14.0859H63.4297L64.375 17H66.4844L62.4844 5.72656H60.2109L56.2109 17ZM61.3281 7.73438H61.3672L62.9219 12.5312H59.7734L61.3281 7.73438ZM69.0312 17H71.1719L74.0859 8.71875H72.0547L70.1406 15.1953H70.0938L68.1719 8.71875H66.1016L69.0312 17ZM77.2422 17.1406C78.3359 17.1406 79.2578 16.5938 79.7344 15.7266H79.7812V17H81.7266V11.3047C81.7266 9.64062 80.3906 8.54688 78.3203 8.54688C76.2188 8.54688 74.9453 9.64844 74.8281 11.1172L74.8203 11.2109H76.625L76.6406 11.1406C76.7656 10.5312 77.3281 10.1016 78.25 10.1016C79.2344 10.1016 79.7812 10.6094 79.7812 11.4453V12.0156L77.6172 12.1484C75.6094 12.2734 74.4688 13.1562 74.4688 14.625V14.6406C74.4688 16.1172 75.5859 17.1406 77.2422 17.1406ZM76.4062 14.5625V14.5547C76.4062 13.8984 76.9297 13.4844 77.8906 13.4219L79.7812 13.3047V13.9297C79.7812 14.9141 78.9375 15.6562 77.8203 15.6562C76.9688 15.6562 76.4062 15.2422 76.4062 14.5625ZM84.3281 7.53125C84.9375 7.53125 85.4062 7.04688 85.4062 6.46875C85.4062 5.875 84.9375 5.39844 84.3281 5.39844C83.7188 5.39844 83.2422 5.875 83.2422 6.46875C83.2422 7.04688 83.7188 7.53125 84.3281 7.53125ZM83.3516 17H85.2969V8.71875H83.3516V17ZM87.0078 17H88.9531V5.72656H87.0078V17ZM93.0547 17.1406C94.1484 17.1406 95.0703 16.5938 95.5469 15.7266H95.5938V17H97.5391V11.3047C97.5391 9.64062 96.2031 8.54688 94.1328 8.54688C92.0312 8.54688 90.7578 9.64844 90.6406 11.1172L90.6328 11.2109H92.4375L92.4531 11.1406C92.5781 10.5312 93.1406 10.1016 94.0625 10.1016C95.0469 10.1016 95.5938 10.6094 95.5938 11.4453V12.0156L93.4297 12.1484C91.4219 12.2734 90.2812 13.1562 90.2812 14.625V14.6406C90.2812 16.1172 91.3984 17.1406 93.0547 17.1406ZM92.2188 14.5625V14.5547C92.2188 13.8984 92.7422 13.4844 93.7031 13.4219L95.5938 13.3047V13.9297C95.5938 14.9141 94.75 15.6562 93.6328 15.6562C92.7812 15.6562 92.2188 15.2422 92.2188 14.5625ZM103.734 17.1641C105.828 17.1641 107.156 15.5234 107.156 12.8594V12.8516C107.156 10.1797 105.82 8.54688 103.742 8.54688C102.57 8.54688 101.625 9.14844 101.156 10.1406H101.109V5.72656H99.1641V17H101.109V15.5938H101.156C101.625 16.5703 102.539 17.1641 103.734 17.1641ZM103.148 15.5234C101.945 15.5234 101.109 14.4844 101.109 12.8594V12.8516C101.109 11.2344 101.953 10.1875 103.148 10.1875C104.391 10.1875 105.172 11.2031 105.172 12.8516V12.8594C105.172 14.5078 104.398 15.5234 103.148 15.5234ZM108.461 17H110.406V5.72656H108.461V17ZM115.703 17.1641C117.867 17.1641 119.086 15.8828 119.344 14.6094L119.367 14.5234H117.547L117.531 14.5781C117.344 15.1328 116.711 15.6484 115.742 15.6484C114.477 15.6484 113.68 14.7891 113.648 13.3359H119.445V12.7109C119.445 10.2109 117.977 8.54688 115.609 8.54688C113.242 8.54688 111.719 10.2656 111.719 12.875V12.8828C111.719 15.5156 113.219 17.1641 115.703 17.1641ZM115.633 10.0703C116.664 10.0703 117.414 10.7266 117.555 12.0391H113.672C113.828 10.7656 114.602 10.0703 115.633 10.0703ZM59.8516 39.1953C62.1641 39.1953 63.5078 37.8516 63.5078 35.5625V27.7266H61.5V35.5469C61.5 36.7734 60.9219 37.4297 59.8281 37.4297C58.8359 37.4297 58.3047 36.7812 58.25 35.9141L58.2422 35.8516H56.2734L56.2812 35.9375C56.3594 37.875 57.6562 39.1953 59.8516 39.1953ZM69.0234 39.1641C71.4531 39.1641 73.0312 37.5469 73.0312 34.8594V34.8438C73.0312 32.1719 71.4297 30.5469 69.0156 30.5469C66.6094 30.5469 65.0156 32.1875 65.0156 34.8438V34.8594C65.0156 37.5391 66.5859 39.1641 69.0234 39.1641ZM69.0312 37.5938C67.7891 37.5938 67 36.6016 67 34.8594V34.8438C67 33.125 67.8047 32.125 69.0156 32.125C70.25 32.125 71.0469 33.1172 71.0469 34.8438V34.8594C71.0469 36.5938 70.2578 37.5938 69.0312 37.5938ZM78.9062 39.1641C81 39.1641 82.3281 37.5234 82.3281 34.8594V34.8516C82.3281 32.1797 80.9922 30.5469 78.9141 30.5469C77.7422 30.5469 76.7969 31.1484 76.3281 32.1406H76.2812V27.7266H74.3359V39H76.2812V37.5938H76.3281C76.7969 38.5703 77.7109 39.1641 78.9062 39.1641ZM78.3203 37.5234C77.1172 37.5234 76.2812 36.4844 76.2812 34.8594V34.8516C76.2812 33.2344 77.125 32.1875 78.3203 32.1875C79.5625 32.1875 80.3438 33.2031 80.3438 34.8516V34.8594C80.3438 36.5078 79.5703 37.5234 78.3203 37.5234ZM86.8125 39.1641C88.8438 39.1641 90.2891 38.1172 90.2891 36.5547V36.5469C90.2891 35.3438 89.625 34.6719 87.9141 34.2891L86.5312 33.9844C85.6719 33.7891 85.3516 33.4766 85.3516 33V32.9922C85.3516 32.3828 85.8906 31.9844 86.75 31.9844C87.6562 31.9844 88.1875 32.4688 88.2734 33.1328L88.2812 33.1953H90.0938L90.0859 33.1094C90.0156 31.6797 88.8125 30.5469 86.75 30.5469C84.75 30.5469 83.4297 31.5703 83.4297 33.0859V33.0938C83.4297 34.3203 84.2266 35.0938 85.8125 35.4453L87.1875 35.75C88.0469 35.9453 88.3359 36.2266 88.3359 36.7266V36.7344C88.3359 37.3438 87.7656 37.7266 86.8203 37.7266C85.8359 37.7266 85.2969 37.3047 85.1484 36.5938L85.1328 36.5234H83.2188L83.2266 36.5938C83.3984 38.1328 84.6406 39.1641 86.8125 39.1641Z" fill="#8B8B8B"/>
<circle cx="20" cy="22" r="20" transform="rotate(-90 20 22)" fill="#C897E4"/>
<path d="M10 22H23" stroke="white" stroke-width="2" stroke-linecap="round" stroke-linejoin="round"/>
<path fill-rule="evenodd" clip-rule="evenodd" d="M23 27V17L30 22L23 27Z" stroke="white" stroke-width="2" stroke-linecap="round" stroke-linejoin="round"/>
</g>
<defs>
<clipPath id="clip0_0_761">
<rect width="150" height="44" fill="white"/>
</clipPath>
</defs>
</svg>
