<svg width="375" height="403" viewBox="0 0 375 403" fill="none" xmlns="http://www.w3.org/2000/svg">
<g filter="url(#filter0_d_0_1993)">
<circle cx="188" cy="183.5" r="155" fill="black"/>
</g>
<circle cx="188" cy="183.5" r="155" fill="#232340"/>
<path d="M109.987 219.452H179.371V205.029H133.297V204.277L155.036 183.632C172.399 166.952 177.799 159.091 177.799 147.47V147.333C177.799 131.064 163.991 119.101 144.235 119.101C124.205 119.101 109.03 132.021 109.03 150.068V150.546H125.573V150.068C125.778 140.566 133.434 133.251 144.371 133.251C153.873 133.251 160.504 139.54 160.573 148.359V148.495C160.573 155.81 157.77 160.8 144.85 173.447L109.987 207.421V219.452ZM229.411 221.161C251.969 221.161 267.76 209.404 267.76 192.587V192.45C267.76 179.941 258.6 170.234 245.543 167.568V167.157C256.754 164.15 264.137 155.947 264.137 145.419V145.282C264.137 130.175 249.782 119.101 229.411 119.101C209.108 119.101 194.684 130.175 194.684 145.282V145.419C194.684 155.947 202.067 164.15 213.278 167.157V167.568C200.221 170.234 191.129 179.941 191.129 192.45V192.587C191.129 209.404 206.852 221.161 229.411 221.161ZM229.411 161.552C219.157 161.552 212.116 155.605 212.116 147.06V146.923C212.116 138.378 219.225 132.431 229.411 132.431C239.596 132.431 246.705 138.378 246.705 146.923V147.06C246.705 155.605 239.664 161.552 229.411 161.552ZM229.411 207.695C217.653 207.695 209.245 200.927 209.245 191.493V191.357C209.245 181.855 217.516 175.019 229.411 175.019C241.305 175.019 249.577 181.855 249.577 191.357V191.493C249.577 200.927 241.237 207.695 229.411 207.695Z" fill="white"/>
<path d="M126.247 255.845H131.564C134.271 255.845 135.915 254.474 135.915 252.241V252.224C135.915 250.554 134.702 249.306 132.918 249.148V249.095C134.271 248.91 135.299 247.698 135.299 246.344V246.326C135.299 244.402 133.814 243.162 131.511 243.162H126.247V255.845ZM130.94 244.929C132.285 244.929 133.058 245.544 133.058 246.634V246.652C133.058 247.821 132.171 248.489 130.588 248.489H128.514V244.929H130.94ZM130.949 250.132C132.689 250.132 133.603 250.809 133.603 252.092V252.11C133.603 253.402 132.707 254.078 131.046 254.078H128.514V250.132H130.949ZM138.472 245.193C139.158 245.193 139.685 244.648 139.685 243.997C139.685 243.329 139.158 242.793 138.472 242.793C137.787 242.793 137.251 243.329 137.251 243.997C137.251 244.648 137.787 245.193 138.472 245.193ZM137.374 255.845H139.562V246.529H137.374V255.845ZM145.627 259.106C148.325 259.106 150.021 257.691 150.021 255.581V246.529H147.833V248.111H147.78C147.253 247.038 146.233 246.335 144.915 246.335C142.559 246.335 141.039 248.146 141.039 251.09V251.099C141.039 253.999 142.542 255.792 144.879 255.792C146.215 255.792 147.27 255.159 147.789 254.166H147.833V255.511C147.833 256.698 147.05 257.453 145.627 257.453C144.484 257.453 143.737 257.049 143.5 256.513L143.473 256.443H141.32L141.338 256.522C141.601 257.981 143.157 259.106 145.627 259.106ZM145.565 254.105C144.159 254.105 143.271 252.971 143.271 251.134V251.125C143.271 249.315 144.159 248.181 145.565 248.181C146.919 248.181 147.841 249.332 147.841 251.134V251.143C147.841 252.953 146.927 254.105 145.565 254.105ZM155.91 256.03C158.344 256.03 159.715 254.588 160.005 253.156L160.032 253.059H157.984L157.966 253.12C157.755 253.744 157.044 254.324 155.954 254.324C154.53 254.324 153.633 253.358 153.598 251.723H160.12V251.02C160.12 248.207 158.467 246.335 155.804 246.335C153.141 246.335 151.427 248.269 151.427 251.204V251.213C151.427 254.175 153.115 256.03 155.91 256.03ZM155.831 248.049C156.991 248.049 157.835 248.787 157.993 250.264H153.625C153.8 248.831 154.671 248.049 155.831 248.049ZM165.173 256.03C167.459 256.03 169.085 254.852 169.085 253.094V253.085C169.085 251.732 168.338 250.976 166.413 250.545L164.857 250.202C163.89 249.983 163.53 249.631 163.53 249.095V249.086C163.53 248.401 164.136 247.952 165.103 247.952C166.123 247.952 166.72 248.497 166.817 249.244L166.826 249.315H168.865L168.856 249.218C168.777 247.61 167.423 246.335 165.103 246.335C162.853 246.335 161.368 247.487 161.368 249.192V249.2C161.368 250.58 162.264 251.45 164.048 251.846L165.595 252.189C166.562 252.408 166.887 252.725 166.887 253.287V253.296C166.887 253.982 166.246 254.412 165.182 254.412C164.075 254.412 163.468 253.938 163.301 253.138L163.284 253.059H161.13L161.139 253.138C161.333 254.869 162.73 256.03 165.173 256.03ZM173.945 256.03C174.384 256.03 174.771 255.986 175.026 255.95V254.307C174.877 254.316 174.71 254.342 174.499 254.342C173.699 254.342 173.295 254.052 173.295 253.138V248.216H175.026V246.529H173.295V244.164H171.071V246.529H169.753V248.216H171.071V253.323C171.071 255.239 171.994 256.03 173.945 256.03ZM180.352 255.845H185.67C188.377 255.845 190.02 254.474 190.02 252.241V252.224C190.02 250.554 188.807 249.306 187.023 249.148V249.095C188.377 248.91 189.405 247.698 189.405 246.344V246.326C189.405 244.402 187.92 243.162 185.617 243.162H180.352V255.845ZM185.046 244.929C186.39 244.929 187.164 245.544 187.164 246.634V246.652C187.164 247.821 186.276 248.489 184.694 248.489H182.62V244.929H185.046ZM185.054 250.132C186.795 250.132 187.709 250.809 187.709 252.092V252.11C187.709 253.402 186.812 254.078 185.151 254.078H182.62V250.132H185.054ZM191.418 255.845H193.606V250.387C193.606 249.077 194.353 248.278 195.592 248.278C195.962 248.278 196.296 248.33 196.48 248.401V246.423C196.313 246.379 196.058 246.335 195.786 246.335C194.687 246.335 193.87 246.994 193.588 248.084H193.545V246.529H191.418V255.845ZM200.145 256.003C201.376 256.003 202.413 255.388 202.949 254.412H203.002V255.845H205.19V249.438C205.19 247.566 203.687 246.335 201.358 246.335C198.994 246.335 197.561 247.574 197.429 249.227L197.421 249.332H199.451L199.468 249.253C199.609 248.568 200.242 248.084 201.279 248.084C202.386 248.084 203.002 248.656 203.002 249.596V250.238L200.567 250.387C198.308 250.528 197.025 251.521 197.025 253.173V253.191C197.025 254.852 198.282 256.003 200.145 256.003ZM199.205 253.103V253.094C199.205 252.356 199.794 251.89 200.875 251.82L203.002 251.688V252.391C203.002 253.498 202.052 254.333 200.796 254.333C199.838 254.333 199.205 253.867 199.205 253.103ZM206.957 255.845H209.145V250.44C209.145 249.095 209.945 248.181 211.202 248.181C212.45 248.181 213.065 248.928 213.065 250.255V255.845H215.254V249.816C215.254 247.654 214.085 246.335 212.037 246.335C210.622 246.335 209.672 246.986 209.189 247.988H209.145V246.529H206.957V255.845ZM220.474 256.03C221.819 256.03 222.847 255.362 223.375 254.263H223.427V255.845H225.616V243.162H223.427V248.128H223.375C222.847 247.012 221.784 246.335 220.465 246.335C218.128 246.335 216.625 248.172 216.625 251.178V251.187C216.625 254.184 218.119 256.03 220.474 256.03ZM221.133 254.184C219.727 254.184 218.857 253.041 218.857 251.187V251.178C218.857 249.323 219.736 248.181 221.133 248.181C222.478 248.181 223.427 249.359 223.427 251.178V251.187C223.427 253.015 222.487 254.184 221.133 254.184ZM228.613 245.193C229.298 245.193 229.826 244.648 229.826 243.997C229.826 243.329 229.298 242.793 228.613 242.793C227.927 242.793 227.391 243.329 227.391 243.997C227.391 244.648 227.927 245.193 228.613 245.193ZM227.514 255.845H229.703V246.529H227.514V255.845ZM231.566 255.845H233.754V250.44C233.754 249.095 234.554 248.181 235.811 248.181C237.059 248.181 237.674 248.928 237.674 250.255V255.845H239.863V249.816C239.863 247.654 238.694 246.335 236.646 246.335C235.231 246.335 234.282 246.986 233.798 247.988H233.754V246.529H231.566V255.845ZM245.822 259.106C248.52 259.106 250.216 257.691 250.216 255.581V246.529H248.028V248.111H247.975C247.448 247.038 246.428 246.335 245.11 246.335C242.754 246.335 241.234 248.146 241.234 251.09V251.099C241.234 253.999 242.737 255.792 245.075 255.792C246.411 255.792 247.465 255.159 247.984 254.166H248.028V255.511C248.028 256.698 247.246 257.453 245.822 257.453C244.679 257.453 243.932 257.049 243.695 256.513L243.669 256.443H241.515L241.533 256.522C241.796 257.981 243.352 259.106 245.822 259.106ZM245.76 254.105C244.354 254.105 243.466 252.971 243.466 251.134V251.125C243.466 249.315 244.354 248.181 245.76 248.181C247.114 248.181 248.037 249.332 248.037 251.134V251.143C248.037 252.953 247.123 254.105 245.76 254.105Z" fill="white"/>
<defs>
<filter id="filter0_d_0_1993" x="-18" y="0.5" width="412" height="412" filterUnits="userSpaceOnUse" color-interpolation-filters="sRGB">
<feFlood flood-opacity="0" result="BackgroundImageFix"/>
<feColorMatrix in="SourceAlpha" type="matrix" values="0 0 0 0 0 0 0 0 0 0 0 0 0 0 0 0 0 0 127 0" result="hardAlpha"/>
<feOffset dy="23"/>
<feGaussianBlur stdDeviation="25.5"/>
<feColorMatrix type="matrix" values="0 0 0 0 0 0 0 0 0 0 0 0 0 0 0 0 0 0 0.242297 0"/>
<feBlend mode="normal" in2="BackgroundImageFix" result="effect1_dropShadow_0_1993"/>
<feBlend mode="normal" in="SourceGraphic" in2="effect1_dropShadow_0_1993" result="shape"/>
</filter>
</defs>
</svg>
