<svg width="151" height="29" viewBox="0 0 151 29" fill="none" xmlns="http://www.w3.org/2000/svg">
<rect width="149.787" height="28.4444" rx="14.2222" fill="#908CFF"/>
<path d="M27.1708 19.8223H25.659V11.3672H31.0497V12.6738H27.1708V15.1348H30.7157V16.3945H27.1708V19.8223ZM35.2626 14.4375C34.829 14.4375 34.4715 14.5801 34.1903 14.8652C33.909 15.1504 33.7528 15.5273 33.7215 15.9961H36.7391C36.7235 15.5195 36.5829 15.1406 36.3172 14.8594C36.0516 14.5781 35.7001 14.4375 35.2626 14.4375ZM36.7508 18.0586H38.1278C37.9911 18.6445 37.6688 19.1074 37.161 19.4473C36.6571 19.7832 36.0301 19.9512 35.2801 19.9512C34.3387 19.9512 33.5985 19.6582 33.0594 19.0723C32.5243 18.4824 32.2567 17.6719 32.2567 16.6406C32.2567 15.6094 32.5262 14.793 33.0653 14.1914C33.6044 13.5859 34.3387 13.2832 35.2684 13.2832C36.1825 13.2832 36.8973 13.5703 37.4129 14.1445C37.9325 14.7148 38.1922 15.5059 38.1922 16.5176V16.9863H33.7157V17.0625C33.7352 17.5977 33.8876 18.0215 34.1727 18.334C34.4618 18.6426 34.8446 18.7969 35.3212 18.7969C36.0555 18.7969 36.5321 18.5508 36.7508 18.0586ZM41.8426 18.7852C42.2801 18.7852 42.6454 18.6602 42.9383 18.4102C43.2313 18.1562 43.3778 17.8438 43.3778 17.4727V16.9629L41.9305 17.0566C41.1337 17.1074 40.7352 17.3965 40.7352 17.9238C40.7352 18.1895 40.8368 18.4004 41.0399 18.5566C41.2469 18.709 41.5145 18.7852 41.8426 18.7852ZM41.4149 19.9277C40.7899 19.9277 40.2801 19.752 39.8856 19.4004C39.4911 19.0488 39.2938 18.584 39.2938 18.0059C39.2938 17.4277 39.5028 16.9746 39.9208 16.6465C40.3426 16.3184 40.9442 16.1309 41.7254 16.084L43.3778 15.9844V15.4453C43.3778 15.1289 43.2743 14.8867 43.0672 14.7188C42.8602 14.5508 42.5614 14.4668 42.1708 14.4668C41.8348 14.4668 41.5575 14.5254 41.3387 14.6426C41.12 14.7559 40.9774 14.9199 40.911 15.1348H39.5399C39.5985 14.5684 39.8719 14.1191 40.3602 13.7871C40.8524 13.4512 41.4794 13.2832 42.2411 13.2832C43.0614 13.2832 43.6942 13.4727 44.1395 13.8516C44.5887 14.2305 44.8133 14.7617 44.8133 15.4453V19.8223H43.4129V18.9434H43.3133C43.1337 19.252 42.8758 19.4941 42.5399 19.6699C42.2079 19.8418 41.8329 19.9277 41.4149 19.9277ZM47.0282 11.8418H48.4754V13.4531H49.8465V14.6133H48.4754V17.7598C48.4754 18.0762 48.5458 18.3086 48.6864 18.457C48.827 18.6016 49.0497 18.6738 49.3544 18.6738C49.4872 18.6738 49.6512 18.6641 49.8465 18.6445V19.7812C49.6044 19.8281 49.3504 19.8516 49.0848 19.8516C48.3504 19.8516 47.8231 19.7168 47.5028 19.4473C47.1864 19.1777 47.0282 18.7324 47.0282 18.1113V14.6133H46.0145V13.4531H47.0282V11.8418ZM56.8778 13.4121V19.8223H55.4774V18.8027H55.3778C55.0536 19.5684 54.4149 19.9512 53.4618 19.9512C52.7626 19.9512 52.2176 19.7441 51.827 19.3301C51.4364 18.9121 51.2411 18.3281 51.2411 17.5781V13.4121H52.6942V17.2148C52.6942 17.707 52.7977 18.0742 53.0047 18.3164C53.2118 18.5547 53.5321 18.6738 53.9657 18.6738C54.4344 18.6738 54.7938 18.5391 55.0438 18.2695C55.2977 18 55.4247 17.625 55.4247 17.1445V13.4121H56.8778ZM58.659 19.8223V13.4121H60.0594V14.4082H60.159C60.2489 14.0879 60.4501 13.8242 60.7626 13.6172C61.079 13.4102 61.4422 13.3066 61.8524 13.3066C62.1141 13.3066 62.3153 13.3281 62.4559 13.3711V14.7188C62.3075 14.6641 62.0594 14.6367 61.7118 14.6367C61.2391 14.6367 60.8544 14.7734 60.5575 15.0469C60.2606 15.3164 60.1122 15.6738 60.1122 16.1191V19.8223H58.659ZM66.1766 14.4375C65.743 14.4375 65.3856 14.5801 65.1044 14.8652C64.8231 15.1504 64.6669 15.5273 64.6356 15.9961H67.6532C67.6376 15.5195 67.4969 15.1406 67.2313 14.8594C66.9657 14.5781 66.6141 14.4375 66.1766 14.4375ZM67.6649 18.0586H69.0419C68.9051 18.6445 68.5829 19.1074 68.0751 19.4473C67.5712 19.7832 66.9442 19.9512 66.1942 19.9512C65.2528 19.9512 64.5126 19.6582 63.9735 19.0723C63.4383 18.4824 63.1708 17.6719 63.1708 16.6406C63.1708 15.6094 63.4403 14.793 63.9794 14.1914C64.5184 13.5859 65.2528 13.2832 66.1825 13.2832C67.0965 13.2832 67.8114 13.5703 68.327 14.1445C68.8465 14.7148 69.1063 15.5059 69.1063 16.5176V16.9863H64.6297V17.0625C64.6493 17.5977 64.8016 18.0215 65.0868 18.334C65.3758 18.6426 65.7587 18.7969 66.2352 18.7969C66.9696 18.7969 67.4462 18.5508 67.6649 18.0586ZM72.8856 19.9277C72.0731 19.9277 71.4305 19.6309 70.9579 19.0371C70.4852 18.4395 70.2489 17.6309 70.2489 16.6113C70.2489 15.5996 70.4852 14.7969 70.9579 14.2031C71.4344 13.6055 72.077 13.3066 72.8856 13.3066C73.3231 13.3066 73.7137 13.4062 74.0575 13.6055C74.4012 13.8047 74.659 14.0801 74.8309 14.4316H74.9305V10.9336H76.3837V19.8223H74.9774V18.8086H74.8778C74.6942 19.1602 74.4266 19.4355 74.0751 19.6348C73.7274 19.8301 73.3309 19.9277 72.8856 19.9277ZM74.5145 15.0996C74.2254 14.7285 73.8329 14.543 73.3368 14.543C72.8407 14.543 72.4501 14.7285 72.1649 15.0996C71.8797 15.4668 71.7372 15.9727 71.7372 16.6172C71.7372 17.2656 71.8778 17.7734 72.159 18.1406C72.4442 18.5078 72.8368 18.6914 73.3368 18.6914C73.8368 18.6914 74.2294 18.5078 74.5145 18.1406C74.8036 17.7695 74.9481 17.2617 74.9481 16.6172C74.9481 15.9766 74.8036 15.4707 74.5145 15.0996ZM81.5692 11.3672H84.9794C85.8231 11.3672 86.5067 11.6309 87.0301 12.1582C87.5575 12.6855 87.8212 13.375 87.8212 14.2266C87.8212 15.0625 87.5497 15.7422 87.0067 16.2656C86.4676 16.7891 85.7704 17.0508 84.9149 17.0508H83.0809V19.8223H81.5692V11.3672ZM83.0809 12.6328V15.7969H84.5751C85.118 15.7969 85.5379 15.6602 85.8348 15.3867C86.1356 15.1133 86.286 14.7266 86.286 14.2266C86.286 13.7109 86.1376 13.3164 85.8407 13.043C85.5477 12.7695 85.1278 12.6328 84.5809 12.6328H83.0809ZM89.3387 19.8223V13.4121H90.7391V14.4082H90.8387C90.9286 14.0879 91.1297 13.8242 91.4422 13.6172C91.7587 13.4102 92.1219 13.3066 92.5321 13.3066C92.7938 13.3066 92.995 13.3281 93.1356 13.3711V14.7188C92.9872 14.6641 92.7391 14.6367 92.3915 14.6367C91.9188 14.6367 91.534 14.7734 91.2372 15.0469C90.9403 15.3164 90.7919 15.6738 90.7919 16.1191V19.8223H89.3387ZM96.9325 19.9512C95.9715 19.9512 95.2176 19.6562 94.6708 19.0664C94.1239 18.4727 93.8504 17.6562 93.8504 16.6172C93.8504 15.5859 94.1258 14.7734 94.6766 14.1797C95.2274 13.582 95.9794 13.2832 96.9325 13.2832C97.8895 13.2832 98.6415 13.5801 99.1883 14.1738C99.7391 14.7676 100.015 15.582 100.015 16.6172C100.015 17.6562 99.7391 18.4727 99.1883 19.0664C98.6415 19.6562 97.8895 19.9512 96.9325 19.9512ZM95.7547 18.1816C96.0321 18.5488 96.4247 18.7324 96.9325 18.7324C97.4403 18.7324 97.8309 18.5488 98.1044 18.1816C98.3817 17.8105 98.5204 17.2891 98.5204 16.6172C98.5204 15.9492 98.3817 15.4297 98.1044 15.0586C97.827 14.6875 97.4364 14.502 96.9325 14.502C96.4247 14.502 96.0321 14.6875 95.7547 15.0586C95.4774 15.4297 95.3387 15.9492 95.3387 16.6172C95.3387 17.2891 95.4774 17.8105 95.7547 18.1816ZM103.8 19.9277C102.987 19.9277 102.345 19.6309 101.872 19.0371C101.399 18.4395 101.163 17.6309 101.163 16.6113C101.163 15.5996 101.399 14.7969 101.872 14.2031C102.348 13.6055 102.991 13.3066 103.8 13.3066C104.237 13.3066 104.628 13.4062 104.972 13.6055C105.315 13.8047 105.573 14.0801 105.745 14.4316H105.845V10.9336H107.298V19.8223H105.891V18.8086H105.792C105.608 19.1602 105.341 19.4355 104.989 19.6348C104.641 19.8301 104.245 19.9277 103.8 19.9277ZM105.429 15.0996C105.14 14.7285 104.747 14.543 104.251 14.543C103.755 14.543 103.364 14.7285 103.079 15.0996C102.794 15.4668 102.651 15.9727 102.651 16.6172C102.651 17.2656 102.792 17.7734 103.073 18.1406C103.358 18.5078 103.751 18.6914 104.251 18.6914C104.751 18.6914 105.143 18.5078 105.429 18.1406C105.718 17.7695 105.862 17.2617 105.862 16.6172C105.862 15.9766 105.718 15.4707 105.429 15.0996ZM114.71 13.4121V19.8223H113.309V18.8027H113.21C112.886 19.5684 112.247 19.9512 111.294 19.9512C110.595 19.9512 110.05 19.7441 109.659 19.3301C109.268 18.9121 109.073 18.3281 109.073 17.5781V13.4121H110.526V17.2148C110.526 17.707 110.63 18.0742 110.837 18.3164C111.044 18.5547 111.364 18.6738 111.798 18.6738C112.266 18.6738 112.626 18.5391 112.876 18.2695C113.13 18 113.257 17.625 113.257 17.1445V13.4121H114.71ZM122.028 15.5684H120.645C120.575 15.2441 120.419 14.9863 120.177 14.7949C119.934 14.5996 119.62 14.502 119.233 14.502C118.733 14.502 118.343 14.6855 118.061 15.0527C117.784 15.4199 117.645 15.9355 117.645 16.5996C117.645 17.2715 117.786 17.7949 118.067 18.1699C118.348 18.5449 118.737 18.7324 119.233 18.7324C119.612 18.7324 119.923 18.6445 120.165 18.4688C120.411 18.293 120.571 18.0391 120.645 17.707H122.028C121.946 18.3906 121.659 18.9355 121.167 19.3418C120.679 19.748 120.036 19.9512 119.239 19.9512C118.274 19.9512 117.522 19.6562 116.983 19.0664C116.444 18.4766 116.175 17.6543 116.175 16.5996C116.175 15.5566 116.444 14.7441 116.983 14.1621C117.522 13.5762 118.272 13.2832 119.233 13.2832C120.038 13.2832 120.684 13.4922 121.173 13.9102C121.665 14.3242 121.95 14.877 122.028 15.5684ZM123.962 11.8418H125.409V13.4531H126.78V14.6133H125.409V17.7598C125.409 18.0762 125.479 18.3086 125.62 18.457C125.761 18.6016 125.983 18.6738 126.288 18.6738C126.421 18.6738 126.585 18.6641 126.78 18.6445V19.7812C126.538 19.8281 126.284 19.8516 126.018 19.8516C125.284 19.8516 124.757 19.7168 124.436 19.4473C124.12 19.1777 123.962 18.7324 123.962 18.1113V14.6133H122.948V13.4531H123.962V11.8418Z" fill="white"/>
</svg>
