<svg width="1024" height="341" viewBox="0 0 1024 341" fill="none" xmlns="http://www.w3.org/2000/svg">
<rect y="0.177734" width="1024" height="340" fill="white"/>
<mask id="mask0_0_1018" style="mask-type:alpha" maskUnits="userSpaceOnUse" x="0" y="0" width="1024" height="341">
<rect y="0.177734" width="1024" height="340" fill="white"/>
</mask>
<g mask="url(#mask0_0_1018)">
<path d="M687.644 -35.3614C666.119 -30.7178 648.938 -13.2316 642.531 7.53286C635.896 29.044 642.602 51.6217 659.164 66.6973C675.157 81.2395 698.986 88.1017 719.68 80.1515C739.036 72.7133 755.854 51.5009 746.51 30.2955C738.616 12.3897 715.221 1.92219 696.945 9.7373C678.67 17.5524 669.788 39.4262 673.13 58.3133C677.354 82.1426 700.508 95.2911 721.678 101.954C747.32 110.075 777.194 111.27 798.2 129.958C814.762 144.692 822.883 167.647 821.233 189.57C820.479 200.557 816.996 211.181 811.1 220.482C804.579 230.573 793.45 239.213 781.176 240.393C767.523 241.709 757.71 231.234 756.721 218.086C755.648 203.629 764.408 190.992 772.736 180.02C788.643 159.071 809.002 138.214 835.427 131.757C858.83 126.068 886.976 132.511 899.384 154.79C913.45 180.048 903.438 210.192 888.526 232.479C880.433 244.568 870.812 255.597 861.34 266.612C851.712 277.812 841.998 288.955 832.896 300.61C815.672 322.712 800.647 346.968 794.168 374.516C788.088 400.358 789.902 428.148 804.245 451.039C817.571 472.372 839.089 487.426 861.973 497.076C890.56 509.165 921.635 513.915 951.928 519.704L1049.09 538.278L1095.69 547.181C1096.69 547.373 1097.11 545.837 1096.11 545.638L1000.11 527.284C968.881 521.318 937.429 516.034 906.41 509.037C878.798 502.8 851.1 493.72 828.75 475.75C818.851 467.792 810.147 458.242 803.825 447.177C797.039 435.091 793.183 421.58 792.568 407.732C789.475 347.494 834.09 301.336 870.165 258.747C887.345 238.452 905.009 215.853 907.37 188.347C908.401 176.457 906.517 164.027 900.551 153.567C895.054 144.128 886.558 136.798 876.416 132.745C854.528 123.75 829.873 128.635 810.403 141.03C799.523 147.977 790.044 156.923 781.582 166.594C772.942 176.479 763.904 187.337 758.656 199.462C754.19 209.787 753.173 222.509 759.758 232.223C765.646 240.898 776.071 243.643 785.934 241.161C807.416 235.757 819.825 214.004 822.449 193.339C825.045 172.845 819.05 151.12 805.653 135.305C788.586 115.188 761.948 110.36 737.592 104.571C714.524 99.0955 686.2 89.8582 676.792 65.5453C669.276 46.1249 677.34 20.3897 696.896 11.5009C716.65 2.5053 743.573 16.4786 747.185 38.0182C751.523 63.8315 723.32 82.1782 700.529 81.9151C677.738 81.652 655.452 66.9818 646.058 46.2031C636.295 24.5711 643.15 -1.02892 659.313 -17.6263C667.088 -25.7314 677.086 -31.3573 688.049 -33.7969C689.066 -34.0174 688.625 -35.5534 687.644 -35.3614Z" fill="#D1ECFD"/>
</g>
</svg>
