<svg width="343" height="458" viewBox="0 0 343 458" fill="none" xmlns="http://www.w3.org/2000/svg">
<path d="M-66.356 0.0165644C-87.8813 4.66012 -105.062 22.1463 -111.469 42.9108C-118.104 64.4219 -111.398 86.9997 -94.836 102.075C-78.8431 116.617 -55.0138 123.48 -34.3204 115.529C-14.964 108.091 1.85378 86.8788 -7.49023 65.6735C-15.3836 47.7677 -38.7791 37.3001 -57.0547 45.1152C-75.3302 52.9303 -84.212 74.8041 -80.8698 93.6912C-76.6458 117.521 -53.492 130.669 -32.3222 137.332C-6.67957 145.453 23.1942 146.648 44.2004 165.336C60.7622 180.07 68.8831 203.025 67.2333 224.948C66.4787 235.934 62.9958 246.559 57.1 255.86C50.5791 265.951 39.4502 274.591 27.1764 275.771C13.5231 277.087 3.70977 266.612 2.72133 253.464C1.64755 239.007 10.4084 226.37 18.7355 215.398C34.6431 194.449 55.0022 173.592 81.4271 167.135C104.83 161.446 132.976 167.889 145.384 190.168C159.45 215.426 149.438 245.57 134.526 267.857C126.433 279.945 116.812 290.975 107.34 301.99C97.7115 313.19 87.9978 324.333 78.8956 335.988C61.6724 358.089 46.6467 382.345 40.1684 409.894C34.0884 435.736 35.9018 463.526 50.2449 486.417C63.5711 507.75 85.0893 522.804 107.973 532.454C136.56 544.543 167.635 549.293 197.928 555.081L295.095 573.656L341.687 582.559C342.689 582.751 343.109 581.215 342.113 581.016L246.113 562.662C214.881 556.696 183.429 551.412 152.41 544.415C124.798 538.178 97.1 529.097 74.7498 511.128C64.8511 503.17 56.1471 493.62 49.8253 482.555C43.0387 470.469 39.1831 456.958 38.5684 443.11C35.4751 382.872 80.0902 336.713 116.165 294.125C133.345 273.83 151.009 251.231 153.37 223.725C154.401 211.835 152.517 199.405 146.551 188.945C141.054 179.506 132.558 172.176 122.416 168.123C100.528 159.128 75.8733 164.013 56.4031 176.408C45.5231 183.355 36.044 192.301 27.5818 201.972C18.9418 211.857 9.90356 222.715 4.65556 234.84C0.189781 245.165 -0.827118 257.887 5.75777 267.601C11.6458 276.276 22.0707 279.021 31.9338 276.539C53.4164 271.135 65.8253 249.382 68.4493 228.717C71.0449 208.223 65.0502 186.498 51.6529 170.683C34.5862 150.566 7.948 145.737 -16.4076 139.949C-39.476 134.473 -67.7996 125.236 -77.2076 100.923C-84.724 81.5028 -76.66 55.7677 -57.1044 46.8788C-37.3498 37.8832 -10.4271 51.8566 -6.81467 73.3961C-2.47689 99.2094 -30.6796 117.556 -53.4707 117.293C-76.2618 117.03 -98.548 102.36 -107.942 81.581C-117.705 59.949 -110.85 34.349 -94.6867 17.7517C-86.9115 9.64656 -76.914 4.02062 -65.9507 1.58101C-64.9338 1.36056 -65.3747 -0.175436 -66.356 0.0165644Z" fill="#D1ECFD"/>
</svg>
