<svg width="925" height="729" viewBox="0 0 925 729" fill="none" xmlns="http://www.w3.org/2000/svg">
<rect width="925" height="728.178" rx="28.4444" fill="#5468E7"/>
<path opacity="0.2" d="M133.466 0.0165644C111.941 4.66012 94.7605 22.1463 88.3534 42.9108C81.7187 64.4219 88.4245 86.9997 104.986 102.075C120.979 116.617 144.808 123.48 165.502 115.529C184.858 108.091 201.676 86.8788 192.332 65.6735C184.439 47.7677 161.043 37.3001 142.768 45.1152C124.492 52.9303 115.61 74.8041 118.952 93.6912C123.176 117.521 146.33 130.669 167.5 137.332C193.143 145.453 223.016 146.648 244.023 165.336C260.584 180.07 268.705 203.025 267.056 224.948C266.301 235.934 262.818 246.559 256.922 255.86C250.401 265.951 239.272 274.591 226.999 275.771C213.345 277.087 203.532 266.612 202.544 253.464C201.47 239.007 210.231 226.37 218.558 215.398C234.465 194.449 254.824 173.592 281.249 167.135C304.652 161.446 332.798 167.889 345.207 190.168C359.272 215.426 349.26 245.57 334.348 267.857C326.256 279.945 316.634 290.975 307.162 301.99C297.534 313.19 287.82 324.333 278.718 335.988C261.495 358.089 246.469 382.345 239.991 409.894C233.911 435.736 235.724 463.526 250.067 486.417C263.393 507.75 284.912 522.804 307.795 532.454C336.382 544.543 367.457 549.293 397.751 555.081L494.917 573.656L541.509 582.559C542.512 582.751 542.931 581.215 541.936 581.016L445.936 562.662C414.704 556.696 383.251 551.412 352.232 544.415C324.62 538.178 296.922 529.097 274.572 511.128C264.673 503.17 255.969 493.62 249.648 482.555C242.861 470.469 239.005 456.958 238.391 443.11C235.297 382.872 279.912 336.713 315.987 294.125C333.168 273.83 350.832 251.231 353.192 223.725C354.224 211.835 352.339 199.405 346.373 188.945C340.876 179.506 332.381 172.176 322.238 168.123C300.35 159.128 275.696 164.013 256.225 176.408C245.345 183.355 235.866 192.301 227.404 201.972C218.764 211.857 209.726 222.715 204.478 234.84C200.012 245.165 198.995 257.887 205.58 267.601C211.468 276.276 221.893 279.021 231.756 276.539C253.239 271.135 265.648 249.382 268.272 228.717C270.867 208.223 264.872 186.498 251.475 170.683C234.408 150.566 207.77 145.737 183.415 139.949C160.346 134.473 132.023 125.236 122.615 100.923C115.098 81.5028 123.162 55.7677 142.718 46.8788C162.472 37.8832 189.395 51.8566 193.008 73.3961C197.345 99.2094 169.143 117.556 146.352 117.293C123.56 117.03 101.274 102.36 91.8805 81.581C82.1169 59.949 88.972 34.349 105.136 17.7517C112.911 9.64656 122.908 4.02062 133.872 1.58101C134.888 1.36056 134.448 -0.175436 133.466 0.0165644Z" fill="#D1ECFD"/>
</svg>
