<svg width="150" height="44" viewBox="0 0 150 44" fill="none" xmlns="http://www.w3.org/2000/svg">
<g clip-path="url(#clip0_0_790)">
<path d="M56.5312 13.8281H58.4844C58.5469 14.3438 58.8125 14.7604 59.2812 15.0781C59.75 15.3906 60.3307 15.5469 61.0234 15.5469C61.7005 15.5469 62.2526 15.3958 62.6797 15.0938C63.112 14.7917 63.3281 14.4062 63.3281 13.9375C63.3281 13.5312 63.1719 13.2031 62.8594 12.9531C62.5469 12.6979 62.0365 12.487 61.3281 12.3203L59.8672 11.9766C58.8307 11.737 58.0599 11.3646 57.5547 10.8594C57.0547 10.3542 56.8047 9.69792 56.8047 8.89062C56.8047 7.89583 57.1953 7.08854 57.9766 6.46875C58.7578 5.84896 59.7656 5.53906 61 5.53906C62.2396 5.53906 63.237 5.84635 63.9922 6.46094C64.7526 7.07031 65.1458 7.8724 65.1719 8.86719H63.25C63.2031 8.34115 62.9766 7.92969 62.5703 7.63281C62.1641 7.33073 61.6354 7.17969 60.9844 7.17969C60.349 7.17969 59.8333 7.32292 59.4375 7.60938C59.0469 7.89583 58.8516 8.27344 58.8516 8.74219C58.8516 9.11719 59.0026 9.42188 59.3047 9.65625C59.612 9.89062 60.112 10.0911 60.8047 10.2578L62.1016 10.5547C63.2422 10.8151 64.0703 11.1953 64.5859 11.6953C65.1016 12.1953 65.3594 12.8646 65.3594 13.7031C65.3594 14.7708 64.9583 15.6198 64.1562 16.25C63.3594 16.875 62.2786 17.1875 60.9141 17.1875C59.612 17.1875 58.5651 16.888 57.7734 16.2891C56.987 15.6849 56.5729 14.8646 56.5312 13.8281ZM77.9219 8.71875L75.6797 17H73.6328L72 10.9453H71.9609L70.3359 17H68.3047L66.0625 8.71875H68.0156L69.4141 15.0781H69.4531L71.0703 8.71875H72.9375L74.5547 15.0781H74.6016L76 8.71875H77.9219ZM78.9375 17V8.71875H80.8828V17H78.9375ZM80.6719 7.32812C80.4635 7.53125 80.2083 7.63281 79.9062 7.63281C79.6042 7.63281 79.349 7.53125 79.1406 7.32812C78.9323 7.11979 78.8281 6.86979 78.8281 6.57812C78.8281 6.28125 78.9323 6.03125 79.1406 5.82812C79.349 5.61979 79.6042 5.51562 79.9062 5.51562C80.2083 5.51562 80.4635 5.61979 80.6719 5.82812C80.8854 6.03125 80.9922 6.28125 80.9922 6.57812C80.9922 6.86979 80.8854 7.11979 80.6719 7.32812ZM87.0625 8.57812C88.1146 8.57812 88.9505 8.96094 89.5703 9.72656C90.1901 10.4922 90.5 11.5365 90.5 12.8594C90.5 14.1771 90.1927 15.2188 89.5781 15.9844C88.9635 16.75 88.1354 17.1328 87.0938 17.1328C86.5 17.1328 85.9766 17 85.5234 16.7344C85.0703 16.4635 84.7292 16.0938 84.5 15.625H84.4609V19.7266H82.5156V8.71875H84.4141V10.1484H84.4531C84.6927 9.65885 85.0391 9.27604 85.4922 9C85.9453 8.71875 86.4688 8.57812 87.0625 8.57812ZM86.4688 15.5391C87.099 15.5391 87.5964 15.2995 87.9609 14.8203C88.3255 14.3359 88.5078 13.6823 88.5078 12.8594C88.5078 12.0417 88.3229 11.3906 87.9531 10.9062C87.5885 10.4219 87.0938 10.1797 86.4688 10.1797C85.8646 10.1797 85.3776 10.4245 85.0078 10.9141C84.638 11.4036 84.4505 12.0521 84.4453 12.8594C84.4505 13.6719 84.638 14.3229 85.0078 14.8125C85.3776 15.2969 85.8646 15.5391 86.4688 15.5391ZM95.3203 10.0547C94.7786 10.0547 94.3255 10.2422 93.9609 10.6172C93.6016 10.987 93.401 11.4635 93.3594 12.0469H97.2266C97.2057 11.4583 97.0208 10.9792 96.6719 10.6094C96.3229 10.2396 95.8724 10.0547 95.3203 10.0547ZM97.2344 14.5234H99.0547C98.9297 15.3099 98.5312 15.9479 97.8594 16.4375C97.1875 16.9219 96.3646 17.1641 95.3906 17.1641C94.151 17.1641 93.1771 16.7839 92.4688 16.0234C91.7604 15.2578 91.4062 14.2135 91.4062 12.8906C91.4062 11.5781 91.7578 10.526 92.4609 9.73438C93.1693 8.94271 94.1198 8.54688 95.3125 8.54688C96.4844 8.54688 97.4141 8.92448 98.1016 9.67969C98.7891 10.4297 99.1328 11.4349 99.1328 12.6953V13.3281H93.3438V13.4453C93.3438 14.112 93.5312 14.6484 93.9062 15.0547C94.2865 15.4609 94.7943 15.6641 95.4297 15.6641C95.8776 15.6641 96.263 15.5625 96.5859 15.3594C96.9141 15.151 97.1302 14.8724 97.2344 14.5234ZM106.688 17.1328C105.641 17.1328 104.805 16.7474 104.18 15.9766C103.56 15.2057 103.25 14.1641 103.25 12.8516C103.25 11.5443 103.56 10.5052 104.18 9.73438C104.805 8.96354 105.641 8.57812 106.688 8.57812C107.271 8.57812 107.786 8.71615 108.234 8.99219C108.688 9.26823 109.026 9.64062 109.25 10.1094H109.297V5.72656H111.242V17H109.336V15.5859H109.305C109.076 16.0599 108.729 16.4375 108.266 16.7188C107.807 16.9948 107.281 17.1328 106.688 17.1328ZM107.273 10.1797C106.648 10.1797 106.154 10.4219 105.789 10.9062C105.424 11.3854 105.242 12.0365 105.242 12.8594C105.242 13.6875 105.422 14.3411 105.781 14.8203C106.146 15.2995 106.643 15.5391 107.273 15.5391C107.888 15.5391 108.38 15.2969 108.75 14.8125C109.12 14.3281 109.305 13.6771 109.305 12.8594C109.305 12.0469 109.12 11.3984 108.75 10.9141C108.38 10.4245 107.888 10.1797 107.273 10.1797ZM119.461 16.0156C118.737 16.7812 117.763 17.1641 116.539 17.1641C115.315 17.1641 114.341 16.7812 113.617 16.0156C112.893 15.2448 112.531 14.1927 112.531 12.8594C112.531 11.5312 112.896 10.4818 113.625 9.71094C114.354 8.9349 115.326 8.54688 116.539 8.54688C117.758 8.54688 118.729 8.9349 119.453 9.71094C120.182 10.4818 120.547 11.5312 120.547 12.8594C120.547 14.1927 120.185 15.2448 119.461 16.0156ZM115.055 14.8984C115.419 15.3828 115.914 15.625 116.539 15.625C117.164 15.625 117.659 15.3828 118.023 14.8984C118.388 14.4141 118.57 13.7344 118.57 12.8594C118.57 11.9896 118.388 11.3125 118.023 10.8281C117.659 10.3385 117.164 10.0938 116.539 10.0938C115.919 10.0938 115.424 10.3385 115.055 10.8281C114.69 11.3125 114.508 11.9896 114.508 12.8594C114.508 13.7344 114.69 14.4141 115.055 14.8984ZM132.984 8.71875L130.742 17H128.695L127.062 10.9453H127.023L125.398 17H123.367L121.125 8.71875H123.078L124.477 15.0781H124.516L126.133 8.71875H128L129.617 15.0781H129.664L131.062 8.71875H132.984ZM133.953 17V8.71875H135.82V10.1406H135.859C136.089 9.64062 136.422 9.2526 136.859 8.97656C137.302 8.70052 137.836 8.5625 138.461 8.5625C139.367 8.5625 140.07 8.83594 140.57 9.38281C141.076 9.92969 141.328 10.6849 141.328 11.6484V17H139.383V12.0391C139.383 11.4453 139.242 10.9922 138.961 10.6797C138.685 10.3672 138.273 10.2109 137.727 10.2109C137.169 10.2109 136.724 10.3932 136.391 10.7578C136.062 11.1224 135.898 11.6042 135.898 12.2031V17H133.953ZM57.3359 28.7812H59.2812V30.7188H60.8438V32.2188H59.2812V36.5234C59.2812 36.862 59.362 37.112 59.5234 37.2734C59.6849 37.4349 59.9375 37.5156 60.2812 37.5156C60.5104 37.5156 60.6953 37.5026 60.8359 37.4766V38.9609C60.6016 39.013 60.2656 39.0391 59.8281 39.0391C58.9323 39.0391 58.2917 38.8672 57.9062 38.5234C57.526 38.1797 57.3359 37.6042 57.3359 36.7969V32.2188H56.1484V30.7188H57.3359V28.7812ZM68.6016 38.0156C67.8776 38.7812 66.9036 39.1641 65.6797 39.1641C64.4557 39.1641 63.4818 38.7812 62.7578 38.0156C62.0339 37.2448 61.6719 36.1927 61.6719 34.8594C61.6719 33.5312 62.0365 32.4818 62.7656 31.7109C63.4948 30.9349 64.4661 30.5469 65.6797 30.5469C66.8984 30.5469 67.8698 30.9349 68.5938 31.7109C69.3229 32.4818 69.6875 33.5312 69.6875 34.8594C69.6875 36.1927 69.3255 37.2448 68.6016 38.0156ZM64.1953 36.8984C64.5599 37.3828 65.0547 37.625 65.6797 37.625C66.3047 37.625 66.7995 37.3828 67.1641 36.8984C67.5286 36.4141 67.7109 35.7344 67.7109 34.8594C67.7109 33.9896 67.5286 33.3125 67.1641 32.8281C66.7995 32.3385 66.3047 32.0938 65.6797 32.0938C65.0599 32.0938 64.5651 32.3385 64.1953 32.8281C63.8307 33.3125 63.6484 33.9896 63.6484 34.8594C63.6484 35.7344 63.8307 36.4141 64.1953 36.8984ZM77.7109 32.0547C77.1693 32.0547 76.7161 32.2422 76.3516 32.6172C75.9922 32.987 75.7917 33.4635 75.75 34.0469H79.6172C79.5964 33.4583 79.4115 32.9792 79.0625 32.6094C78.7135 32.2396 78.263 32.0547 77.7109 32.0547ZM79.625 36.5234H81.4453C81.3203 37.3099 80.9219 37.9479 80.25 38.4375C79.5781 38.9219 78.7552 39.1641 77.7812 39.1641C76.5417 39.1641 75.5677 38.7839 74.8594 38.0234C74.151 37.2578 73.7969 36.2135 73.7969 34.8906C73.7969 33.5781 74.1484 32.526 74.8516 31.7344C75.5599 30.9427 76.5104 30.5469 77.7031 30.5469C78.875 30.5469 79.8047 30.9245 80.4922 31.6797C81.1797 32.4297 81.5234 33.4349 81.5234 34.6953V35.3281H75.7344V35.4453C75.7344 36.112 75.9219 36.6484 76.2969 37.0547C76.6771 37.4609 77.1849 37.6641 77.8203 37.6641C78.2682 37.6641 78.6536 37.5625 78.9766 37.3594C79.3047 37.151 79.5208 36.8724 79.625 36.5234ZM85.875 36.0312H85.8359L84.1172 39H82.0469L84.7188 34.8672L82.0703 30.7188H84.2578L85.9297 33.625H85.9688L87.6172 30.7188H89.75L87.0859 34.8125L89.7188 39H87.5938L85.875 36.0312ZM95.2969 30.5781C96.349 30.5781 97.1849 30.9609 97.8047 31.7266C98.4245 32.4922 98.7344 33.5365 98.7344 34.8594C98.7344 36.1771 98.4271 37.2188 97.8125 37.9844C97.1979 38.75 96.3698 39.1328 95.3281 39.1328C94.7344 39.1328 94.2109 39 93.7578 38.7344C93.3047 38.4635 92.9635 38.0938 92.7344 37.625H92.6953V41.7266H90.75V30.7188H92.6484V32.1484H92.6875C92.9271 31.6589 93.2734 31.276 93.7266 31C94.1797 30.7188 94.7031 30.5781 95.2969 30.5781ZM94.7031 37.5391C95.3333 37.5391 95.8307 37.2995 96.1953 36.8203C96.5599 36.3359 96.7422 35.6823 96.7422 34.8594C96.7422 34.0417 96.5573 33.3906 96.1875 32.9062C95.8229 32.4219 95.3281 32.1797 94.7031 32.1797C94.099 32.1797 93.612 32.4245 93.2422 32.9141C92.8724 33.4036 92.6849 34.0521 92.6797 34.8594C92.6849 35.6719 92.8724 36.3229 93.2422 36.8125C93.612 37.2969 94.099 37.5391 94.7031 37.5391ZM100.039 39V27.7266H101.984V39H100.039ZM110.227 38.0156C109.503 38.7812 108.529 39.1641 107.305 39.1641C106.081 39.1641 105.107 38.7812 104.383 38.0156C103.659 37.2448 103.297 36.1927 103.297 34.8594C103.297 33.5312 103.661 32.4818 104.391 31.7109C105.12 30.9349 106.091 30.5469 107.305 30.5469C108.523 30.5469 109.495 30.9349 110.219 31.7109C110.948 32.4818 111.312 33.5312 111.312 34.8594C111.312 36.1927 110.951 37.2448 110.227 38.0156ZM105.82 36.8984C106.185 37.3828 106.68 37.625 107.305 37.625C107.93 37.625 108.424 37.3828 108.789 36.8984C109.154 36.4141 109.336 35.7344 109.336 34.8594C109.336 33.9896 109.154 33.3125 108.789 32.8281C108.424 32.3385 107.93 32.0938 107.305 32.0938C106.685 32.0938 106.19 32.3385 105.82 32.8281C105.456 33.3125 105.273 33.9896 105.273 34.8594C105.273 35.7344 105.456 36.4141 105.82 36.8984ZM112.562 39V30.7188H114.43V32.1641H114.469C114.609 31.6589 114.852 31.2682 115.195 30.9922C115.544 30.7161 115.964 30.5781 116.453 30.5781C116.625 30.5781 116.828 30.6042 117.062 30.6562V32.4141C116.87 32.3411 116.607 32.3047 116.273 32.3047C115.721 32.3047 115.289 32.4714 114.977 32.8047C114.664 33.138 114.508 33.5964 114.508 34.1797V39H112.562ZM121.32 32.0547C120.779 32.0547 120.326 32.2422 119.961 32.6172C119.602 32.987 119.401 33.4635 119.359 34.0469H123.227C123.206 33.4583 123.021 32.9792 122.672 32.6094C122.323 32.2396 121.872 32.0547 121.32 32.0547ZM123.234 36.5234H125.055C124.93 37.3099 124.531 37.9479 123.859 38.4375C123.188 38.9219 122.365 39.1641 121.391 39.1641C120.151 39.1641 119.177 38.7839 118.469 38.0234C117.76 37.2578 117.406 36.2135 117.406 34.8906C117.406 33.5781 117.758 32.526 118.461 31.7344C119.169 30.9427 120.12 30.5469 121.312 30.5469C122.484 30.5469 123.414 30.9245 124.102 31.6797C124.789 32.4297 125.133 33.4349 125.133 34.6953V35.3281H119.344V35.4453C119.344 36.112 119.531 36.6484 119.906 37.0547C120.286 37.4609 120.794 37.6641 121.43 37.6641C121.878 37.6641 122.263 37.5625 122.586 37.3594C122.914 37.151 123.13 36.8724 123.234 36.5234Z" fill="#8B8B8B"/>
<circle cx="20" cy="22" r="20" fill="#C897E4"/>
<path d="M20 12V25" stroke="white" stroke-width="2" stroke-linecap="round" stroke-linejoin="round"/>
<path fill-rule="evenodd" clip-rule="evenodd" d="M15 25H25L20 32L15 25Z" stroke="white" stroke-width="2" stroke-linecap="round" stroke-linejoin="round"/>
</g>
<defs>
<clipPath id="clip0_0_790">
<rect width="150" height="44" fill="white"/>
</clipPath>
</defs>
</svg>
