<svg width="158" height="48" viewBox="0 0 158 48" fill="none" xmlns="http://www.w3.org/2000/svg">
<path d="M64.5977 26.4316H66.7949C66.8652 27.0117 67.1641 27.4805 67.6914 27.8379C68.2188 28.1895 68.8721 28.3652 69.6514 28.3652C70.4131 28.3652 71.0342 28.1953 71.5146 27.8555C72.001 27.5156 72.2441 27.082 72.2441 26.5547C72.2441 26.0977 72.0684 25.7285 71.7168 25.4473C71.3652 25.1602 70.791 24.9229 69.9941 24.7354L68.3506 24.3486C67.1846 24.0791 66.3174 23.6602 65.749 23.0918C65.1865 22.5234 64.9053 21.7852 64.9053 20.877C64.9053 19.7578 65.3447 18.8496 66.2236 18.1523C67.1025 17.4551 68.2363 17.1064 69.625 17.1064C71.0195 17.1064 72.1416 17.4521 72.9912 18.1436C73.8467 18.8291 74.2891 19.7314 74.3184 20.8506H72.1562C72.1035 20.2588 71.8486 19.7959 71.3916 19.4619C70.9346 19.1221 70.3398 18.9521 69.6074 18.9521C68.8926 18.9521 68.3125 19.1133 67.8672 19.4355C67.4277 19.7578 67.208 20.1826 67.208 20.71C67.208 21.1318 67.3779 21.4746 67.7178 21.7383C68.0635 22.002 68.626 22.2275 69.4053 22.415L70.8643 22.749C72.1475 23.042 73.0791 23.4697 73.6592 24.0322C74.2393 24.5947 74.5293 25.3477 74.5293 26.291C74.5293 27.4922 74.0781 28.4473 73.1758 29.1562C72.2793 29.8594 71.0635 30.2109 69.5283 30.2109C68.0635 30.2109 66.8857 29.874 65.9951 29.2002C65.1104 28.5205 64.6445 27.5977 64.5977 26.4316ZM84.2324 24.0059H82.167C82.0732 23.4844 81.8506 23.0654 81.499 22.749C81.1475 22.4268 80.6904 22.2656 80.1279 22.2656C79.4365 22.2656 78.8857 22.541 78.4756 23.0918C78.0654 23.6367 77.8604 24.3867 77.8604 25.3418C77.8604 26.3086 78.0654 27.0645 78.4756 27.6094C78.8857 28.1484 79.4424 28.418 80.1455 28.418C80.6963 28.418 81.1475 28.2715 81.499 27.9785C81.8506 27.6797 82.0762 27.2637 82.1758 26.7305H84.2412C84.1533 27.7734 83.7344 28.6113 82.9844 29.2441C82.2402 29.8711 81.2852 30.1846 80.1191 30.1846C78.748 30.1846 77.6582 29.7539 76.8496 28.8926C76.041 28.0254 75.6367 26.8418 75.6367 25.3418C75.6367 23.8594 76.041 22.6816 76.8496 21.8086C77.6582 20.9297 78.7422 20.4902 80.1016 20.4902C81.2969 20.4902 82.2637 20.8242 83.002 21.4922C83.7461 22.1543 84.1562 22.9922 84.2324 24.0059ZM85.5508 30V20.6836H87.6514V22.3096H87.6953C87.8535 21.7412 88.126 21.3018 88.5127 20.9912C88.9053 20.6807 89.377 20.5254 89.9277 20.5254C90.1211 20.5254 90.3496 20.5547 90.6133 20.6133V22.5908C90.3965 22.5088 90.1006 22.4678 89.7256 22.4678C89.1045 22.4678 88.6182 22.6553 88.2666 23.0303C87.915 23.4053 87.7393 23.9209 87.7393 24.5771V30H85.5508ZM98.7959 28.8926C97.9814 29.7539 96.8857 30.1846 95.5088 30.1846C94.1318 30.1846 93.0361 29.7539 92.2217 28.8926C91.4072 28.0254 91 26.8418 91 25.3418C91 23.8477 91.4102 22.667 92.2305 21.7998C93.0508 20.9268 94.1436 20.4902 95.5088 20.4902C96.8799 20.4902 97.9727 20.9268 98.7871 21.7998C99.6074 22.667 100.018 23.8477 100.018 25.3418C100.018 26.8418 99.6104 28.0254 98.7959 28.8926ZM93.8389 27.6357C94.249 28.1807 94.8057 28.4531 95.5088 28.4531C96.2119 28.4531 96.7686 28.1807 97.1787 27.6357C97.5889 27.0908 97.7939 26.3262 97.7939 25.3418C97.7939 24.3633 97.5889 23.6016 97.1787 23.0566C96.7686 22.5059 96.2119 22.2305 95.5088 22.2305C94.8115 22.2305 94.2549 22.5059 93.8389 23.0566C93.4287 23.6016 93.2236 24.3633 93.2236 25.3418C93.2236 26.3262 93.4287 27.0908 93.8389 27.6357ZM101.485 30V17.3174H103.674V30H101.485ZM105.599 30V17.3174H107.787V30H105.599ZM116.734 30.1494C115.557 30.1494 114.616 29.7158 113.913 28.8486C113.216 27.9814 112.867 26.8096 112.867 25.333C112.867 23.8623 113.216 22.6934 113.913 21.8262C114.616 20.959 115.557 20.5254 116.734 20.5254C117.391 20.5254 117.971 20.6807 118.475 20.9912C118.984 21.3018 119.365 21.7207 119.617 22.248H119.67V17.3174H121.858V30H119.714V28.4092H119.679C119.421 28.9424 119.031 29.3672 118.51 29.6836C117.994 29.9941 117.402 30.1494 116.734 30.1494ZM117.394 22.3271C116.69 22.3271 116.134 22.5996 115.724 23.1445C115.313 23.6836 115.108 24.416 115.108 25.3418C115.108 26.2734 115.311 27.0088 115.715 27.5479C116.125 28.0869 116.685 28.3564 117.394 28.3564C118.085 28.3564 118.639 28.084 119.055 27.5391C119.471 26.9941 119.679 26.2617 119.679 25.3418C119.679 24.4277 119.471 23.6982 119.055 23.1533C118.639 22.6025 118.085 22.3271 117.394 22.3271ZM131.104 28.8926C130.29 29.7539 129.194 30.1846 127.817 30.1846C126.44 30.1846 125.345 29.7539 124.53 28.8926C123.716 28.0254 123.309 26.8418 123.309 25.3418C123.309 23.8477 123.719 22.667 124.539 21.7998C125.359 20.9268 126.452 20.4902 127.817 20.4902C129.188 20.4902 130.281 20.9268 131.096 21.7998C131.916 22.667 132.326 23.8477 132.326 25.3418C132.326 26.8418 131.919 28.0254 131.104 28.8926ZM126.147 27.6357C126.558 28.1807 127.114 28.4531 127.817 28.4531C128.521 28.4531 129.077 28.1807 129.487 27.6357C129.897 27.0908 130.103 26.3262 130.103 25.3418C130.103 24.3633 129.897 23.6016 129.487 23.0566C129.077 22.5059 128.521 22.2305 127.817 22.2305C127.12 22.2305 126.563 22.5059 126.147 23.0566C125.737 23.6016 125.532 24.3633 125.532 25.3418C125.532 26.3262 125.737 27.0908 126.147 27.6357ZM146.318 20.6836L143.796 30H141.493L139.656 23.1885H139.612L137.784 30H135.499L132.977 20.6836H135.174L136.747 27.8379H136.791L138.61 20.6836H140.711L142.53 27.8379H142.583L144.156 20.6836H146.318ZM147.408 30V20.6836H149.509V22.2832H149.553C149.811 21.7207 150.186 21.2842 150.678 20.9736C151.176 20.6631 151.776 20.5078 152.479 20.5078C153.499 20.5078 154.29 20.8154 154.853 21.4307C155.421 22.0459 155.705 22.8955 155.705 23.9795V30H153.517V24.4189C153.517 23.751 153.358 23.2412 153.042 22.8896C152.731 22.5381 152.269 22.3623 151.653 22.3623C151.026 22.3623 150.525 22.5674 150.15 22.9775C149.781 23.3877 149.597 23.9297 149.597 24.6035V30H147.408Z" fill="#8B8B8B"/>
<circle cx="24" cy="24" r="24" fill="#C897E4"/>
<path d="M24 14V27" stroke="white" stroke-width="2" stroke-linecap="round" stroke-linejoin="round"/>
<path fill-rule="evenodd" clip-rule="evenodd" d="M19 27H29L24 34L19 27Z" stroke="white" stroke-width="2" stroke-linecap="round" stroke-linejoin="round"/>
</svg>
