<svg width="24" height="25" viewBox="0 0 24 25" fill="none" xmlns="http://www.w3.org/2000/svg">
<g clip-path="url(#clip0_0_2282)">
<circle cx="12" cy="12.7778" r="12" fill="url(#paint0_linear_0_2282)"/>
<path d="M11.6299 18.0239C13.7695 18.0239 15.2939 16.561 15.2939 14.558V14.5444C15.2939 12.6713 13.9678 11.2905 12.0742 11.2905C10.7207 11.2905 9.85938 11.9809 9.49707 12.7602H9.36035C9.39453 10.7641 10.0439 9.11664 11.6709 9.11664C12.5391 9.11664 13.1475 9.56781 13.4072 10.2582L13.4346 10.3266H15.1641L15.1504 10.2514C14.8359 8.74066 13.4824 7.66742 11.6709 7.66742C9.18945 7.66742 7.69238 9.63617 7.69238 12.9584V12.9721C7.69238 16.5268 9.52441 18.0239 11.6299 18.0239ZM9.66797 14.5786V14.5649C9.66797 13.4506 10.5225 12.644 11.6367 12.644C12.7578 12.644 13.5713 13.4643 13.5713 14.6059V14.6196C13.5713 15.7202 12.71 16.5883 11.6162 16.5883C10.5225 16.5883 9.66797 15.7065 9.66797 14.5786Z" fill="white"/>
</g>
<defs>
<linearGradient id="paint0_linear_0_2282" x1="0" y1="0.777771" x2="0" y2="24.7778" gradientUnits="userSpaceOnUse">
<stop stop-color="#3A8FFF"/>
<stop offset="1" stop-color="#0837AE"/>
</linearGradient>
<clipPath id="clip0_0_2282">
<rect width="24" height="24" fill="white" transform="translate(0 0.777771)"/>
</clipPath>
</defs>
</svg>
