<svg width="1024" height="944" viewBox="0 0 1024 944" fill="none" xmlns="http://www.w3.org/2000/svg">
<rect width="1024" height="944" fill="url(#paint0_linear_1015_396)"/>
<path d="M280.677 0.016548C259.137 4.65552 241.944 22.1245 235.533 42.8684C228.894 64.3583 235.604 86.9137 252.177 101.974C268.181 116.502 292.027 123.358 312.735 115.415C332.105 107.984 348.934 86.793 339.584 65.6086C331.685 47.7205 308.273 37.2633 289.985 45.0707C271.697 52.8781 262.809 74.7302 266.153 93.5987C270.38 117.405 293.55 130.54 314.735 137.196C340.395 145.309 370.29 146.503 391.311 165.172C407.884 179.892 416.01 202.824 414.36 224.726C413.604 235.701 410.119 246.316 404.219 255.607C397.694 265.688 386.557 274.32 374.275 275.499C360.612 276.813 350.792 266.349 349.803 253.213C348.728 238.771 357.495 226.147 365.828 215.185C381.747 194.257 402.12 173.42 428.563 166.97C451.982 161.286 480.148 167.723 492.565 189.98C506.641 215.214 496.621 245.328 481.699 267.592C473.601 279.669 463.973 290.687 454.494 301.692C444.859 312.881 435.138 324.013 426.03 335.656C408.795 357.736 393.759 381.968 387.276 409.489C381.192 435.305 383.006 463.068 397.359 485.936C410.695 507.248 432.228 522.288 455.127 531.928C483.734 544.005 514.831 548.751 545.146 554.533L642.38 573.089L689.004 581.983C690.007 582.175 690.427 580.641 689.431 580.442L593.364 562.106C562.11 556.146 530.636 550.868 499.596 543.877C471.964 537.647 444.247 528.575 421.881 510.623C411.976 502.673 403.266 493.133 396.939 482.079C390.148 470.004 386.29 456.507 385.675 442.672C382.579 382.494 427.225 336.381 463.325 293.835C480.518 273.559 498.194 250.983 500.556 223.504C501.588 211.626 499.702 199.208 493.732 188.758C488.232 179.328 479.73 172.006 469.58 167.957C447.677 158.971 423.006 163.851 403.522 176.233C392.634 183.174 383.148 192.111 374.68 201.773C366.034 211.647 356.99 222.495 351.738 234.608C347.269 244.923 346.252 257.632 352.841 267.336C358.733 276.003 369.165 278.745 379.035 276.266C400.533 270.867 412.951 249.136 415.576 228.491C418.174 208.017 412.175 186.314 398.768 170.515C381.69 150.417 355.033 145.594 330.66 139.811C307.576 134.341 279.233 125.112 269.818 100.824C262.296 81.4223 270.366 55.7126 289.935 46.8325C309.704 37.8458 336.645 51.8053 340.26 73.3236C344.601 99.1115 316.378 117.44 293.571 117.177C270.764 116.914 248.463 102.259 239.062 81.5004C229.292 59.8898 236.152 34.3151 252.327 17.7341C260.107 9.63703 270.112 4.01665 281.083 1.57945C282.1 1.35922 281.659 -0.175262 280.677 0.016548Z" fill="#9A97ED"/>
<defs>
<linearGradient id="paint0_linear_1015_396" x1="1024" y1="944" x2="1024" y2="0" gradientUnits="userSpaceOnUse">
<stop stop-color="white" stop-opacity="0.01"/>
<stop offset="1" stop-color="#EDE5F0" stop-opacity="0.504289"/>
</linearGradient>
</defs>
</svg>
