<svg width="375" height="1170" viewBox="0 0 375 1170" fill="none" xmlns="http://www.w3.org/2000/svg">
<rect width="375" height="1170" fill="url(#paint0_linear_948_392)"/>
<path d="M209.677 0.016548C188.137 4.65552 170.944 22.1245 164.533 42.8684C157.894 64.3583 164.604 86.9138 181.177 101.974C197.181 116.502 221.027 123.358 241.735 115.415C261.105 107.984 277.934 86.793 268.584 65.6086C260.685 47.7205 237.273 37.2633 218.985 45.0707C200.697 52.8781 191.809 74.7302 195.153 93.5987C199.38 117.405 222.55 130.54 243.735 137.196C269.395 145.309 299.29 146.503 320.311 165.172C336.884 179.892 345.01 202.824 343.36 224.726C342.604 235.701 339.119 246.316 333.219 255.607C326.694 265.688 315.557 274.32 303.275 275.499C289.612 276.813 279.792 266.349 278.803 253.213C277.728 238.771 286.495 226.147 294.828 215.185C310.747 194.257 331.12 173.42 357.563 166.97C380.982 161.286 409.148 167.723 421.565 189.98C435.641 215.214 425.621 245.328 410.699 267.592C402.601 279.669 392.973 290.687 383.494 301.692C373.859 312.881 364.138 324.013 355.03 335.656C337.795 357.736 322.759 381.968 316.276 409.489C310.192 435.305 312.006 463.068 326.359 485.936C339.695 507.248 361.228 522.288 384.127 531.928C412.734 544.005 443.831 548.751 474.146 554.533L571.38 573.089L618.004 581.983C619.007 582.175 619.427 580.641 618.431 580.442L522.364 562.106C491.11 556.146 459.636 550.868 428.596 543.877C400.964 537.647 373.247 528.575 350.881 510.623C340.976 502.673 332.266 493.133 325.939 482.079C319.148 470.004 315.29 456.507 314.675 442.672C311.579 382.494 356.225 336.381 392.325 293.835C409.518 273.559 427.194 250.983 429.556 223.504C430.588 211.626 428.702 199.208 422.732 188.758C417.232 179.328 408.73 172.006 398.58 167.957C376.677 158.971 352.006 163.851 332.522 176.233C321.634 183.174 312.148 192.111 303.68 201.773C295.034 211.647 285.99 222.495 280.738 234.608C276.269 244.923 275.252 257.632 281.841 267.336C287.733 276.003 298.165 278.745 308.035 276.266C329.533 270.867 341.951 249.136 344.576 228.491C347.174 208.017 341.175 186.314 327.768 170.515C310.69 150.417 284.033 145.594 259.66 139.811C236.576 134.341 208.233 125.112 198.818 100.824C191.296 81.4223 199.366 55.7126 218.935 46.8325C238.704 37.8458 265.645 51.8053 269.26 73.3236C273.601 99.1115 245.378 117.44 222.571 117.177C199.764 116.914 177.463 102.259 168.062 81.5004C158.292 59.8898 165.152 34.3151 181.327 17.7341C189.107 9.63703 199.112 4.01665 210.083 1.57945C211.1 1.35922 210.659 -0.175262 209.677 0.016548Z" fill="#9A97ED"/>
<defs>
<linearGradient id="paint0_linear_948_392" x1="375" y1="1170" x2="375" y2="0" gradientUnits="userSpaceOnUse">
<stop stop-color="white" stop-opacity="0.01"/>
<stop offset="1" stop-color="#EDE5F0" stop-opacity="0.504289"/>
</linearGradient>
</defs>
</svg>
