<svg width="375" height="812" viewBox="0 0 375 812" fill="none" xmlns="http://www.w3.org/2000/svg">
<rect width="375" height="812" fill="#232340"/>
<path d="M141.644 0.0165644C120.119 4.66012 102.938 22.1463 96.5311 42.9108C89.8964 64.4219 96.6022 86.9997 113.164 102.075C129.157 116.617 152.986 123.48 173.68 115.529C193.036 108.091 209.854 86.8788 200.51 65.6735C192.616 47.7677 169.221 37.3001 150.945 45.1152C132.67 52.9303 123.788 74.8041 127.13 93.6912C131.354 117.521 154.508 130.669 175.678 137.332C201.32 145.453 231.194 146.648 252.2 165.336C268.762 180.07 276.883 203.025 275.233 224.948C274.479 235.934 270.996 246.559 265.1 255.86C258.579 265.951 247.45 274.591 235.176 275.771C221.523 277.087 211.71 266.612 210.721 253.464C209.648 239.007 218.408 226.37 226.736 215.398C242.643 194.449 263.002 173.592 289.427 167.135C312.83 161.446 340.976 167.889 353.384 190.168C367.45 215.426 357.438 245.57 342.526 267.857C334.433 279.945 324.812 290.975 315.34 301.99C305.712 313.19 295.998 324.333 286.896 335.988C269.672 358.089 254.647 382.345 248.168 409.894C242.088 435.736 243.902 463.526 258.245 486.417C271.571 507.75 293.089 522.804 315.973 532.454C344.56 544.543 375.635 549.293 405.928 555.081L503.095 573.656L549.687 582.559C550.689 582.751 551.109 581.215 550.113 581.016L454.113 562.662C422.881 556.696 391.429 551.412 360.41 544.415C332.798 538.178 305.1 529.097 282.75 511.128C272.851 503.17 264.147 493.62 257.825 482.555C251.039 470.469 247.183 456.958 246.568 443.11C243.475 382.872 288.09 336.713 324.165 294.125C341.345 273.83 359.009 251.231 361.37 223.725C362.401 211.835 360.517 199.405 354.551 188.945C349.054 179.506 340.558 172.176 330.416 168.123C308.528 159.128 283.873 164.013 264.403 176.408C253.523 183.355 244.044 192.301 235.582 201.972C226.942 211.857 217.904 222.715 212.656 234.84C208.19 245.165 207.173 257.887 213.758 267.601C219.646 276.276 230.071 279.021 239.934 276.539C261.416 271.135 273.825 249.382 276.449 228.717C279.045 208.223 273.05 186.498 259.653 170.683C242.586 150.566 215.948 145.737 191.592 139.949C168.524 134.473 140.2 125.236 130.792 100.923C123.276 81.5028 131.34 55.7677 150.896 46.8788C170.65 37.8832 197.573 51.8566 201.185 73.3961C205.523 99.2095 177.32 117.556 154.529 117.293C131.738 117.03 109.452 102.36 100.058 81.581C90.2947 59.949 97.1498 34.349 113.313 17.7517C121.088 9.64656 131.086 4.02062 142.049 1.58101C143.066 1.36056 142.625 -0.175436 141.644 0.0165644Z" fill="url(#paint0_linear_841_391)"/>
<defs>
<linearGradient id="paint0_linear_841_391" x1="488.971" y1="582.575" x2="488.971" y2="157.446" gradientUnits="userSpaceOnUse">
<stop stop-color="#323259" stop-opacity="0.6"/>
<stop offset="1" stop-color="#323259"/>
</linearGradient>
</defs>
</svg>
