<svg width="166" height="103" viewBox="0 0 166 103" fill="none" xmlns="http://www.w3.org/2000/svg">
<path d="M40.6641 102.982C61.9922 102.982 77.5098 88.5586 77.5098 68.5293C77.5098 49.8672 64.1113 36.1953 45.1758 36.1953C31.7773 36.1953 21.9336 43.0312 18.0371 52.123H17.6953C17.832 28.8125 25.7617 14.6621 40.8691 14.6621C49.7559 14.6621 56.1816 19.1055 58.7109 26.8301H76.2109C73.3398 10.9707 59.2578 0.306641 40.9375 0.306641C15.8496 0.306641 0.810547 19.9258 0.810547 52.8066C0.810547 87.8066 18.9941 102.982 40.6641 102.982ZM40.3906 88.627C29.3848 88.627 20.7031 79.9453 20.7031 68.8711C20.7031 57.8652 29.248 49.7988 40.5957 49.7988C51.9434 49.7988 60.2148 57.8652 60.1465 69.2129C60.1465 80.0137 51.3965 88.627 40.3906 88.627ZM127.07 102.982C149.629 102.982 165.557 91.2246 165.557 74.3398C165.557 61.625 156.396 51.8496 143.203 49.1152V48.7051C154.482 45.5605 161.865 37.2207 161.865 26.7617C161.865 11.4492 147.441 0.375 127.07 0.375C106.699 0.375 92.207 11.5176 92.207 26.6934C92.207 37.2891 99.6582 45.6973 110.938 48.7051V49.1152C97.7441 51.7812 88.6523 61.5566 88.6523 74.3398C88.6523 91.1562 104.443 102.982 127.07 102.982ZM127.07 43.0996C116.816 43.0996 109.639 37.084 109.639 28.4707C109.639 19.7891 116.816 13.7051 127.07 13.7051C137.256 13.7051 144.502 19.7207 144.502 28.4707C144.502 37.084 137.256 43.0996 127.07 43.0996ZM127.07 89.5156C115.244 89.5156 106.904 82.6113 106.904 73.041C106.904 63.4707 115.244 56.5664 127.07 56.5664C138.896 56.5664 147.236 63.4023 147.236 73.041C147.236 82.6113 138.896 89.5156 127.07 89.5156Z" fill="#5468E7"/>
</svg>
