<svg width="1024" height="1511" viewBox="0 0 1024 1511" fill="none" xmlns="http://www.w3.org/2000/svg">
<rect width="1024" height="1510.4" fill="url(#paint0_linear_0_847)"/>
<mask id="mask0_0_847" style="mask-type:alpha" maskUnits="userSpaceOnUse" x="0" y="0" width="1024" height="1416">
<rect width="1024" height="1415.11" fill="url(#paint1_linear_0_847)"/>
</mask>
<g mask="url(#mask0_0_847)">
<path d="M659.421 669.71C651.584 693.134 656.014 720.441 672.064 739.456C686.286 756.274 710.052 766.891 731.847 759.858C751.161 753.621 767.637 733.746 764.089 712.654C760.96 694.044 741.433 678.585 722.489 681.707C703.289 684.864 694.045 705.301 695.509 723.029C697.252 744.576 713.806 760.007 732.878 767.907C758.201 778.432 785.906 776.263 812.693 776.953C837.689 777.593 865.472 781.575 884.018 800.092C903.218 819.235 904.114 849.038 893.355 872.668C887.901 884.643 879.844 895.324 870.528 904.562C861.085 913.934 850.077 922.019 837.632 926.933C814.805 935.936 784.377 932.729 770.404 910.293C764.345 900.558 762.005 888.185 765.632 877.155C769.188 866.354 778.361 858.546 788.971 855.033C799.709 851.441 811.424 852.18 821.625 857.095C832.206 862.265 840.555 871.203 846.087 881.5C859.712 906.88 854.35 937.074 844.665 962.795C835.371 987.477 821.952 1011.75 822.485 1038.88C822.699 1049.9 825.131 1061.11 830.969 1070.56C836.978 1080.25 846.279 1087 856.889 1091.01C883.378 1101.05 912.221 1093.71 939.442 1099.38C961.813 1104.04 982.329 1116.37 997.518 1133.37C1005.15 1141.87 1011.34 1151.56 1015.85 1162.05C1021.23 1174.67 1022.96 1188.52 1028.58 1201.04C1032.99 1210.85 1040.77 1220.4 1051.58 1223.22C1064.33 1226.54 1076.58 1219.51 1087.68 1214.19C1098.23 1209.12 1112.18 1204.62 1122.57 1212.44C1123.39 1213.06 1124.19 1211.67 1123.37 1211.06C1114.13 1204.11 1101.76 1206.53 1091.8 1210.59C1079.49 1215.61 1066.8 1225.06 1052.78 1221.87C1039.98 1218.97 1032.16 1206.78 1027.93 1195.25C1023.5 1183.03 1021.41 1170.17 1015.9 1158.32C1006.62 1138.34 990.877 1121.51 971.94 1110.35C962.453 1104.73 952.152 1100.63 941.405 1098.18C927.78 1095.1 913.778 1095.33 899.89 1095.27C874.667 1095.11 844.722 1092.27 831.133 1067.64C818.603 1044.89 824.733 1017.62 833.458 994.802C843.513 968.576 856.612 943.068 855.893 914.211C855.317 891.363 844.829 867.513 823.858 856.441C806.286 847.196 782.151 850.304 769.55 866.482C756.274 883.548 762.553 909.042 778.61 921.948C797.454 937.088 824.121 935.822 844.85 925.447C866.717 914.482 885.774 894.272 895.467 871.829C904.889 850.005 904.768 823.104 889.515 803.861C875.221 785.827 851.463 778.475 829.383 776.313C800.939 773.539 771.712 778.012 743.908 770.055C722.638 763.975 701.063 749.66 697.479 726.236C694.549 707.072 704.839 683.285 726.855 682.908C737.429 682.731 747.577 688.249 754.375 696.128C761.779 704.529 764.579 716.034 761.863 726.898C759.09 737.963 751.396 747.456 741.81 753.451C731.694 759.735 719.55 761.889 707.89 759.467C682.809 754.446 664.121 732.949 658.823 708.501C656.087 695.755 656.823 682.508 660.957 670.144C661.291 669.155 659.748 668.736 659.421 669.71Z" fill="#9A97ED"/>
<path d="M128.711 0.0165644C107.185 4.66012 90.0049 22.1463 83.5978 42.9108C76.9631 64.4219 83.6689 86.9997 100.231 102.075C116.224 116.617 140.053 123.48 160.746 115.529C180.103 108.091 196.92 86.8788 187.576 65.6735C179.683 47.7677 156.288 37.3001 138.012 45.1152C119.736 52.9303 110.855 74.8041 114.197 93.6912C118.421 117.521 141.575 130.669 162.744 137.332C188.387 145.453 218.261 146.648 239.267 165.336C255.829 180.07 263.95 203.025 262.3 224.948C261.545 235.934 258.063 246.559 252.167 255.86C245.646 265.951 234.517 274.591 222.243 275.771C208.59 277.087 198.776 266.612 197.788 253.464C196.714 239.007 205.475 226.37 213.802 215.398C229.71 194.449 250.069 173.592 276.494 167.135C299.896 161.446 328.042 167.889 340.451 190.168C354.517 215.426 344.504 245.57 329.592 267.857C321.5 279.945 311.879 290.975 302.407 301.99C292.778 313.19 283.064 324.333 273.962 335.988C256.739 358.089 241.713 382.345 235.235 409.894C229.155 435.736 230.968 463.526 245.312 486.417C258.638 507.75 280.156 522.804 303.04 532.454C331.626 544.543 362.702 549.293 392.995 555.081L490.161 573.656L536.753 582.559C537.756 582.751 538.176 581.215 537.18 581.016L441.18 562.662C409.948 556.696 378.496 551.412 347.477 544.415C319.864 538.178 292.167 529.097 269.816 511.128C259.918 503.17 251.214 493.62 244.892 482.555C238.105 470.469 234.25 456.958 233.635 443.11C230.542 382.872 275.157 336.713 311.232 294.125C328.412 273.83 346.076 251.231 348.437 223.725C349.468 211.835 347.584 199.405 341.617 188.945C336.121 179.506 327.625 172.176 317.482 168.123C295.594 159.128 270.94 164.013 251.47 176.408C240.59 183.355 231.111 192.301 222.648 201.972C214.008 211.857 204.97 222.715 199.722 234.84C195.256 245.165 194.24 257.887 200.824 267.601C206.712 276.276 217.137 279.021 227 276.539C248.483 271.135 260.892 249.382 263.516 228.717C266.112 208.223 260.117 186.498 246.72 170.683C229.653 150.566 203.015 145.737 178.659 139.949C155.591 134.473 127.267 125.236 117.859 100.923C110.343 81.5028 118.407 55.7677 137.962 46.8788C157.717 37.8832 184.64 51.8566 188.252 73.3961C192.59 99.2095 164.387 117.556 141.596 117.293C118.805 117.03 96.5186 102.36 87.1249 81.581C77.3613 59.949 84.2164 34.349 100.38 17.7517C108.155 9.64656 118.153 4.02062 129.116 1.58101C130.133 1.36056 129.692 -0.175436 128.711 0.0165644Z" fill="#9A97ED"/>
</g>
<defs>
<linearGradient id="paint0_linear_0_847" x1="1024" y1="1510.4" x2="1024" y2="0" gradientUnits="userSpaceOnUse">
<stop stop-color="white" stop-opacity="0.01"/>
<stop offset="1" stop-color="#EDE5F0" stop-opacity="0.504289"/>
</linearGradient>
<linearGradient id="paint1_linear_0_847" x1="1024" y1="1415.11" x2="1024" y2="0" gradientUnits="userSpaceOnUse">
<stop stop-color="white" stop-opacity="0.01"/>
<stop offset="1" stop-color="#EDE5F0" stop-opacity="0.504289"/>
</linearGradient>
</defs>
</svg>
