<svg width="375" height="2419" viewBox="0 0 375 2419" fill="none" xmlns="http://www.w3.org/2000/svg">
<rect width="375" height="1510.4" fill="url(#paint0_linear_0_2020)"/>
<mask id="mask0_0_2020" style="mask-type:alpha" maskUnits="userSpaceOnUse" x="0" y="0" width="375" height="2419">
<rect width="375" height="2419" fill="url(#paint1_linear_0_2020)"/>
</mask>
<g mask="url(#mask0_0_2020)">
<path d="M-5.356 1836.02C-26.8813 1840.66 -44.0618 1858.15 -50.4689 1878.91C-57.1036 1900.42 -50.3978 1923 -33.836 1938.08C-17.8431 1952.62 5.98623 1959.48 26.6796 1951.53C46.036 1944.09 62.8538 1922.88 53.5098 1901.67C45.6164 1883.77 22.2209 1873.3 3.94533 1881.12C-14.3302 1888.93 -23.212 1910.8 -19.8698 1929.69C-15.6458 1953.52 7.508 1966.67 28.6778 1973.33C54.3204 1981.45 84.1942 1982.65 105.2 2001.34C121.762 2016.07 129.883 2039.02 128.233 2060.95C127.479 2071.93 123.996 2082.56 118.1 2091.86C111.579 2101.95 100.45 2110.59 88.1764 2111.77C74.5231 2113.09 64.7098 2102.61 63.7213 2089.46C62.6476 2075.01 71.4084 2062.37 79.7355 2051.4C95.6431 2030.45 116.002 2009.59 142.427 2003.13C165.83 1997.45 193.976 2003.89 206.384 2026.17C220.45 2051.43 210.438 2081.57 195.526 2103.86C187.433 2115.95 177.812 2126.97 168.34 2137.99C158.712 2149.19 148.998 2160.33 139.896 2171.99C122.672 2194.09 107.647 2218.35 101.168 2245.89C95.0884 2271.74 96.9018 2299.53 111.245 2322.42C124.571 2343.75 146.089 2358.8 168.973 2368.45C197.56 2380.54 228.635 2385.29 258.928 2391.08L356.095 2409.66L402.687 2418.56C403.689 2418.75 404.109 2417.21 403.113 2417.02L307.113 2398.66C275.881 2392.7 244.429 2387.41 213.41 2380.41C185.798 2374.18 158.1 2365.1 135.75 2347.13C125.851 2339.17 117.147 2329.62 110.825 2318.56C104.039 2306.47 100.183 2292.96 99.5684 2279.11C96.4751 2218.87 141.09 2172.71 177.165 2130.12C194.345 2109.83 212.009 2087.23 214.37 2059.73C215.401 2047.84 213.517 2035.41 207.551 2024.94C202.054 2015.51 193.558 2008.18 183.416 2004.12C161.528 1995.13 136.873 2000.01 117.403 2012.41C106.523 2019.36 97.044 2028.3 88.5818 2037.97C79.9418 2047.86 70.9036 2058.72 65.6556 2070.84C61.1898 2081.17 60.1729 2093.89 66.7578 2103.6C72.6458 2112.28 83.0707 2115.02 92.9338 2112.54C114.416 2107.13 126.825 2085.38 129.449 2064.72C132.045 2044.22 126.05 2022.5 112.653 2006.68C95.5862 1986.57 68.948 1981.74 44.5924 1975.95C21.524 1970.47 -6.79956 1961.24 -16.2076 1936.92C-23.724 1917.5 -15.66 1891.77 3.89555 1882.88C23.6502 1873.88 50.5729 1887.86 54.1853 1909.4C58.5231 1935.21 30.3204 1953.56 7.52933 1953.29C-15.2618 1953.03 -37.548 1938.36 -46.9418 1917.58C-56.7053 1895.95 -49.8502 1870.35 -33.6867 1853.75C-25.9115 1845.65 -15.914 1840.02 -4.95067 1837.58C-3.93378 1837.36 -4.37467 1835.82 -5.356 1836.02Z" fill="#9A97ED"/>
<path d="M3.77604 932.553C-4.0604 955.977 0.369818 983.284 16.4196 1002.3C30.6418 1019.12 54.4072 1029.73 76.2027 1022.7C95.5165 1016.46 111.993 996.588 108.444 975.497C105.316 956.887 85.7885 941.428 66.8445 944.549C47.6445 947.707 38.4 968.144 39.8649 985.872C41.6072 1007.42 58.1618 1022.85 77.2338 1030.75C102.556 1041.27 130.261 1039.11 157.049 1039.8C182.044 1040.44 209.828 1044.42 228.373 1062.94C247.573 1082.08 248.469 1111.88 237.71 1135.51C232.256 1147.49 224.199 1158.17 214.884 1167.4C205.44 1176.78 194.432 1184.86 181.988 1189.78C159.161 1198.78 128.732 1195.57 114.759 1173.14C108.7 1163.4 106.361 1151.03 109.988 1140C113.543 1129.2 122.716 1121.39 133.326 1117.88C144.064 1114.28 155.78 1115.02 165.98 1119.94C176.562 1125.11 184.91 1134.05 190.443 1144.34C204.068 1169.72 198.706 1199.92 189.02 1225.64C179.726 1250.32 166.308 1274.6 166.841 1301.73C167.054 1312.74 169.486 1323.95 175.324 1333.4C181.333 1343.09 190.635 1349.85 201.244 1353.85C227.733 1363.89 256.576 1356.55 283.797 1362.22C306.169 1366.89 326.684 1379.21 341.874 1396.21C349.501 1404.71 355.693 1414.4 360.206 1424.89C365.582 1437.51 367.317 1451.36 372.935 1463.88C377.344 1473.69 385.124 1483.24 395.94 1486.06C408.69 1489.38 420.935 1482.35 432.036 1477.03C442.581 1471.97 456.533 1467.46 466.923 1475.29C467.748 1475.91 468.544 1474.51 467.726 1473.91C458.482 1466.95 446.116 1469.37 436.153 1473.43C423.844 1478.45 411.157 1487.9 397.134 1484.71C384.334 1481.81 376.512 1469.63 372.288 1458.09C367.858 1445.88 365.767 1433.01 360.256 1421.16C350.976 1401.18 335.232 1384.36 316.295 1373.19C306.809 1367.58 296.508 1363.47 285.76 1361.02C272.135 1357.95 258.133 1358.17 244.245 1358.12C219.022 1357.95 189.077 1355.11 175.488 1330.48C162.958 1307.73 169.088 1280.46 177.813 1257.64C187.868 1231.42 200.967 1205.91 200.249 1177.05C199.673 1154.21 189.184 1130.36 168.213 1119.28C150.642 1110.04 126.507 1113.15 113.906 1129.32C100.629 1146.39 106.908 1171.88 122.965 1184.79C141.81 1199.93 168.476 1198.66 189.205 1188.29C211.072 1177.32 230.13 1157.11 239.822 1134.67C249.244 1112.85 249.124 1085.95 233.87 1066.7C219.577 1048.67 195.819 1041.32 173.739 1039.16C145.294 1036.38 116.068 1040.86 88.2632 1032.9C66.9938 1026.82 45.4187 1012.5 41.8347 989.079C38.9049 969.915 49.1947 946.128 71.2107 945.751C81.7849 945.573 91.9325 951.092 98.7307 958.971C106.135 967.372 108.935 978.877 106.219 989.74C103.445 1000.81 95.7512 1010.3 86.1654 1016.29C76.0499 1022.58 63.9051 1024.73 52.2454 1022.31C27.1645 1017.29 8.47648 995.792 3.17871 971.344C0.442082 958.598 1.17885 945.351 5.31204 932.987C5.64626 931.998 4.10315 931.579 3.77604 932.553Z" fill="#9A97ED"/>
</g>
<defs>
<linearGradient id="paint0_linear_0_2020" x1="375" y1="1510.4" x2="375" y2="0" gradientUnits="userSpaceOnUse">
<stop stop-color="white" stop-opacity="0.01"/>
<stop offset="1" stop-color="#EDE5F0" stop-opacity="0.504289"/>
</linearGradient>
<linearGradient id="paint1_linear_0_2020" x1="375" y1="2419" x2="375" y2="0" gradientUnits="userSpaceOnUse">
<stop stop-color="white" stop-opacity="0.01"/>
<stop offset="1" stop-color="#EDE5F0" stop-opacity="0.504289"/>
</linearGradient>
</defs>
</svg>
