<svg width="619" height="230" viewBox="0 0 619 230" fill="none" xmlns="http://www.w3.org/2000/svg">
<path d="M0.383086 73.4271C11.7892 95.3358 34.5095 111.118 59.3369 112.782C81.3142 114.234 105.46 104.513 115.542 83.9495C124.472 65.7241 121.62 40.0652 103.983 27.9663C88.423 17.2896 63.7376 20.5971 52.8236 36.3929C41.7574 52.3975 50.037 73.2443 63.8071 84.5055C80.5167 98.2198 103.117 97.0307 122.048 88.7996C147.21 77.8949 164.895 56.459 183.999 37.6688C201.823 20.1331 223.987 2.9139 250.191 2.43641C277.298 1.92301 299.359 21.9812 308.883 46.1355C313.709 58.3776 315.795 71.5928 315.969 84.7106C316.151 98.0144 314.32 111.549 309.21 123.915C299.829 146.589 276.385 166.249 250.539 160.716C239.328 158.311 228.802 151.399 223.388 141.129C218.087 131.067 218.843 119.045 223.686 108.972C228.561 98.7529 237.232 90.8392 247.853 86.9155C258.922 82.8951 271.152 83.0991 282.402 86.2722C310.123 94.1014 328.118 118.933 339.892 143.767C351.191 167.599 359.333 194.116 379.219 212.577C387.29 220.076 397.041 226.111 407.895 228.477C419.042 230.887 430.362 228.889 440.612 224.038C466.236 211.959 480.993 186.113 503.979 170.469C522.875 157.617 545.992 151.42 568.774 152.304C580.187 152.723 591.456 154.997 602.138 159.039C614.953 163.94 626.117 172.31 639.028 176.968C649.15 180.613 661.424 181.651 670.963 175.827C682.209 168.962 685.656 155.268 689.541 143.588C693.224 132.485 699.678 119.322 712.522 117.282C713.54 117.119 713.091 115.577 712.088 115.746C700.663 117.565 693.812 128.14 689.813 138.127C684.873 150.469 682.859 166.16 670.821 174.029C659.842 181.221 645.646 178.386 634.415 173.412C622.549 168.113 611.843 160.68 599.493 156.415C578.672 149.21 555.633 148.847 534.447 154.714C523.818 157.637 513.708 162.194 504.478 168.222C492.804 175.889 483.241 186.119 473.553 196.07C455.913 214.1 433.066 233.665 405.912 226.334C380.839 219.54 365.485 196.191 355.131 174.063C343.251 148.612 334.001 121.47 312.744 101.941C295.909 86.484 271.466 77.461 248.934 84.8548C230.078 91.073 215.547 110.593 218.431 130.895C221.485 152.301 244.186 165.494 264.624 162.909C288.605 159.87 306.219 139.808 313.155 117.69C320.457 94.3435 319.158 66.5955 309.747 44.0334C300.593 22.0954 281.158 3.49512 256.72 1.10037C233.819 -1.14518 212.026 10.8373 195.133 25.2186C173.378 43.7533 156.293 67.8844 131.255 82.3576C112.106 93.4339 86.8219 99.01 67.4824 85.3164C51.6615 74.1112 41.6987 50.1857 56.7212 34.0869C63.9387 26.357 74.9573 22.8907 85.3475 23.4738C96.5341 23.9836 106.755 29.9615 112.683 39.4618C118.716 49.1431 120.2 61.2725 117.853 72.3322C115.347 83.9742 108.46 94.2068 98.6181 100.911C77.584 115.465 49.1387 113.975 27.8721 100.803C16.8023 93.9177 7.78491 84.1855 1.76212 72.6235C1.28326 71.6965 -0.0904803 72.515 0.383086 73.4271Z" fill="#9A97ED"/>
</svg>
